<?xml version="1.0" standalone="no"?>
<!DOCTYPE svg PUBLIC "-//W3C//DTD SVG 20010904//EN"
 "http://www.w3.org/TR/2001/REC-SVG-20010904/DTD/svg10.dtd">
<svg version="1.0" xmlns="http://www.w3.org/2000/svg"
 width="970.000000pt" height="970.000000pt" viewBox="0 0 970.000000 970.000000"
 preserveAspectRatio="xMidYMid meet">
<metadata>
Created by potrace 1.13, written by Peter Selinger 2001-2015
</metadata>
<g transform="translate(0.000000,970.000000) scale(0.100000,-0.100000)"
fill="#000000" stroke="none">
<path d="M5 7270 c-4 -1331 -4 -3509 0 -4840 l8 -2420 4837 0 4837 0 8 2420
c4 1331 4 3509 0 4840 l-8 2420 -4837 0 -4837 0 -8 -2420z m4417 -1299 c47 -6
65 -14 93 -41 19 -19 35 -43 35 -53 0 -34 -62 -82 -122 -95 -52 -12 -58 -11
-106 13 -38 19 -68 26 -119 27 -144 3 -526 -22 -703 -46 -102 -14 -239 -30
-305 -35 -66 -5 -176 -21 -245 -34 -69 -14 -174 -33 -235 -42 -94 -14 -308
-58 -755 -157 -281 -61 -883 -233 -1189 -339 -62 -21 -127 -39 -143 -39 -44 0
-92 53 -113 124 -15 52 -15 59 -1 81 9 14 35 35 59 47 36 19 55 22 138 20 92
-2 105 0 255 48 190 61 335 100 516 140 73 17 158 36 188 44 99 24 314 69 585
122 166 32 239 44 340 58 56 7 110 18 120 23 11 6 25 8 32 6 6 -2 37 2 70 10
32 8 67 15 78 15 58 3 181 22 260 40 182 42 555 68 1015 70 107 0 221 -3 252
-7z m2201 -671 c215 -18 360 -70 437 -158 63 -71 67 -151 10 -171 -42 -14 -67
-2 -112 52 -42 51 -112 88 -210 113 -86 21 -386 30 -503 15 -253 -34 -447
-119 -500 -222 -74 -143 109 -341 380 -409 101 -26 285 -50 379 -50 l72 0 12
88 c7 48 22 139 34 202 18 96 25 119 49 142 91 91 270 -72 272 -247 1 -110
-61 -201 -182 -267 l-31 -17 0 -333 c0 -183 5 -440 12 -570 9 -184 9 -246 0
-277 -15 -47 -39 -58 -81 -37 -41 22 -69 60 -86 120 -32 113 -46 625 -25 905
6 74 9 135 8 136 -2 2 -48 -1 -103 -7 -306 -28 -638 87 -785 274 -118 148
-147 305 -76 416 97 154 372 272 705 302 126 11 192 11 324 0z m1632 -45 c164
-26 289 -83 393 -180 119 -110 145 -218 85 -347 -71 -151 -341 -348 -577 -420
l-69 -21 39 -20 c59 -30 148 -127 183 -199 38 -79 55 -177 41 -247 -28 -146
-134 -235 -335 -278 -81 -17 -370 -13 -442 7 -51 15 -82 46 -90 93 -4 30 -1
40 21 62 21 21 33 26 54 21 15 -4 77 -9 137 -13 88 -4 123 -2 170 12 108 30
193 101 230 189 21 51 19 134 -5 173 -35 58 -58 66 -219 76 -167 9 -191 18
-191 71 0 43 30 80 94 116 28 16 185 151 349 301 l298 271 -32 24 c-41 30
-117 59 -229 87 -70 18 -115 21 -260 22 -208 0 -279 -13 -419 -81 -81 -40
-106 -58 -186 -140 -101 -104 -126 -114 -144 -63 -29 83 7 169 115 276 159
158 432 239 769 227 72 -2 171 -11 220 -19z m-6069 -29 l28 -23 -3 -639 c-2
-426 1 -681 9 -764 l11 -125 46 -43 c38 -37 44 -47 38 -70 -14 -60 -58 -132
-114 -185 -66 -63 -99 -72 -144 -37 -51 40 -52 58 -52 925 0 756 1 803 19 854
22 65 79 131 112 131 12 0 35 -11 50 -24z m1867 -991 c14 -9 49 -61 78 -117
58 -111 88 -138 152 -138 45 0 103 23 136 53 13 12 48 55 78 95 82 110 119
127 220 97 52 -16 69 -29 143 -114 82 -95 89 -101 114 -101 32 0 59 29 102
111 50 94 74 114 132 112 26 -2 135 -6 241 -10 l195 -8 -34 -28 c-40 -34 -63
-44 -148 -62 -75 -15 -106 -41 -186 -155 -75 -106 -122 -146 -189 -160 -100
-20 -151 5 -232 115 -71 97 -92 97 -242 8 -94 -56 -198 -97 -276 -108 -93 -13
-246 66 -322 167 -63 84 -86 132 -88 183 -3 79 55 107 126 60z"/>
</g>
</svg>
