<svg id="kity_svg_6" xmlns="http://www.w3.org/2000/svg" xmlns:xlink="http://www.w3.org/1999/xlink" version="1.1" width="854" height="904" style="background: rgb(251, 251, 251); visibility: visible;" viewBox="0 0 854 904"><defs id="kity_defs_7"><linearGradient id="kity_linearGradient_17" x1="0" y1="0" x2="0" y2="1"><stop id="kity_stop_18" offset="0" stop-color="rgb(255, 255, 255)"></stop><stop id="kity_stop_19" offset="1" stop-color="rgb(204, 204, 204)"></stop></linearGradient><marker id="kity_marker_2" orient="auto" refX="6" refY="0" viewBox="-7 -7 14 14" markerWidth="7" markerHeight="7" markerUnits="userSpaceOnUse"><path id="kity_path_3" fill="rgb(115, 191, 118)" stroke="none" d="M6,0A6,6,0,1,1,-6,0A6,6,0,1,1,6,0"></path></marker></defs><g id="kity_g_8"><g id="minder1" text-rendering="optimize-speed"><g id="minder_connect_group1"><path id="kity_path_31" fill="none" stroke="rgb(115, 191, 118)" stroke-width="1" d="M70.5,465.5A66,332,0,0,1,136.5,133.5"></path><path id="kity_path_33" fill="none" stroke="rgb(115, 191, 118)" stroke-width="1" d="M286.5,133.5C294.5,133.5,294.5,29.5,302.5,29.5"></path><path id="kity_path_35" fill="none" stroke="rgb(115, 191, 118)" stroke-width="1" d="M286.5,133.5C294.5,133.5,294.5,55.5,302.5,55.5"></path><path id="kity_path_37" fill="none" stroke="rgb(115, 191, 118)" stroke-width="1" d="M286.5,133.5C294.5,133.5,294.5,81.5,302.5,81.5"></path><path id="kity_path_39" fill="none" stroke="rgb(115, 191, 118)" stroke-width="1" d="M286.5,133.5C294.5,133.5,294.5,107.5,302.5,107.5"></path><path id="kity_path_41" fill="none" stroke="rgb(115, 191, 118)" stroke-width="1" d="M286.5,133.5C294.5,133.5,294.5,133.5,302.5,133.5"></path><path id="kity_path_43" fill="none" stroke="rgb(115, 191, 118)" stroke-width="1" d="M286.5,133.5C294.5,133.5,294.5,159.5,302.5,159.5"></path><path id="kity_path_45" fill="none" stroke="rgb(115, 191, 118)" stroke-width="1" d="M286.5,133.5C294.5,133.5,294.5,185.5,302.5,185.5"></path><path id="kity_path_47" fill="none" stroke="rgb(115, 191, 118)" stroke-width="1" d="M286.5,133.5C294.5,133.5,294.5,211.5,302.5,211.5"></path><path id="kity_path_49" fill="none" stroke="rgb(115, 191, 118)" stroke-width="1" d="M286.5,133.5C294.5,133.5,294.5,237.5,302.5,237.5"></path><path id="kity_path_51" fill="none" stroke="rgb(115, 191, 118)" stroke-width="1" d="M70.5,465.5A66,142,0,0,1,136.5,323.5"></path><path id="kity_path_53" fill="none" stroke="rgb(115, 191, 118)" stroke-width="1" d="M300.5,323.5C308.5,323.5,308.5,297.5,316.5,297.5"></path><path id="kity_path_55" fill="none" stroke="rgb(115, 191, 118)" stroke-width="1" d="M435.5,297.5C443.5,297.5,443.5,271.5,451.5,271.5"></path><path id="kity_path_57" fill="none" stroke="rgb(115, 191, 118)" stroke-width="1" d="M435.5,297.5C443.5,297.5,443.5,297.5,451.5,297.5"></path><path id="kity_path_59" fill="none" stroke="rgb(115, 191, 118)" stroke-width="1" d="M435.5,297.5C443.5,297.5,443.5,323.5,451.5,323.5"></path><path id="kity_path_61" fill="none" stroke="rgb(115, 191, 118)" stroke-width="1" d="M300.5,323.5C308.5,323.5,308.5,349.5,316.5,349.5"></path><path id="kity_path_63" fill="none" stroke="rgb(115, 191, 118)" stroke-width="1" d="M407.5,349.5C415.5,349.5,415.5,349.5,423.5,349.5"></path><path id="kity_path_65" fill="none" stroke="rgb(115, 191, 118)" stroke-width="1" d="M70.5,465.5A66,56,0,0,1,136.5,409.5"></path><path id="kity_path_67" fill="none" stroke="rgb(115, 191, 118)" stroke-width="1" d="M371.5,409.5C379.5,409.5,379.5,383.5,387.5,383.5"></path><path id="kity_path_69" fill="none" stroke="rgb(115, 191, 118)" stroke-width="1" d="M371.5,409.5C379.5,409.5,379.5,409.5,387.5,409.5"></path><path id="kity_path_71" fill="none" stroke="rgb(115, 191, 118)" stroke-width="1" d="M371.5,409.5C379.5,409.5,379.5,435.5,387.5,435.5"></path><path id="kity_path_73" fill="none" stroke="rgb(115, 191, 118)" stroke-width="1" d="M70.5,465.5A66,56,0,0,0,136.5,521.5"></path><path id="kity_path_75" fill="none" stroke="rgb(115, 191, 118)" stroke-width="1" d="M258.5,521.5C266.5,521.5,266.5,469.5,274.5,469.5"></path><path id="kity_path_77" fill="none" stroke="rgb(115, 191, 118)" stroke-width="1" d="M258.5,521.5C266.5,521.5,266.5,495.5,274.5,495.5"></path><path id="kity_path_79" fill="none" stroke="rgb(115, 191, 118)" stroke-width="1" d="M258.5,521.5C266.5,521.5,266.5,534.5,274.5,534.5"></path><path id="kity_path_81" fill="none" stroke="rgb(115, 191, 118)" stroke-width="1" d="M320.5,534.5C328.5,534.5,328.5,521.5,336.5,521.5"></path><path id="kity_path_83" fill="none" stroke="rgb(115, 191, 118)" stroke-width="1" d="M320.5,534.5C328.5,534.5,328.5,547.5,336.5,547.5"></path><path id="kity_path_85" fill="none" stroke="rgb(115, 191, 118)" stroke-width="1" d="M258.5,521.5C266.5,521.5,266.5,573.5,274.5,573.5"></path><path id="kity_path_87" fill="none" stroke="rgb(115, 191, 118)" stroke-width="1" d="M70.5,465.5A66,181,0,0,0,136.5,646.5"></path><path id="kity_path_89" fill="none" stroke="rgb(115, 191, 118)" stroke-width="1" d="M286.5,646.5C294.5,646.5,294.5,607.5,302.5,607.5"></path><path id="kity_path_91" fill="none" stroke="rgb(115, 191, 118)" stroke-width="1" d="M286.5,646.5C294.5,646.5,294.5,633.5,302.5,633.5"></path><path id="kity_path_93" fill="none" stroke="rgb(115, 191, 118)" stroke-width="1" d="M286.5,646.5C294.5,646.5,294.5,659.5,302.5,659.5"></path><path id="kity_path_95" fill="none" stroke="rgb(115, 191, 118)" stroke-width="1" d="M286.5,646.5C294.5,646.5,294.5,685.5,302.5,685.5"></path><path id="kity_path_97" fill="none" stroke="rgb(115, 191, 118)" stroke-width="1" d="M70.5,465.5A66,332,0,0,0,136.5,797.5"></path><path id="kity_path_99" fill="none" stroke="rgb(115, 191, 118)" stroke-width="1" d="M272.5,797.5C280.5,797.5,280.5,719.5,288.5,719.5"></path><path id="kity_path_101" fill="none" stroke="rgb(115, 191, 118)" stroke-width="1" d="M272.5,797.5C280.5,797.5,280.5,745.5,288.5,745.5"></path><path id="kity_path_103" fill="none" stroke="rgb(115, 191, 118)" stroke-width="1" d="M272.5,797.5C280.5,797.5,280.5,771.5,288.5,771.5"></path><path id="kity_path_105" fill="none" stroke="rgb(115, 191, 118)" stroke-width="1" d="M272.5,797.5C280.5,797.5,280.5,797.5,288.5,797.5"></path><path id="kity_path_107" fill="none" stroke="rgb(115, 191, 118)" stroke-width="1" d="M272.5,797.5C280.5,797.5,280.5,823.5,288.5,823.5"></path><path id="kity_path_109" fill="none" stroke="rgb(115, 191, 118)" stroke-width="1" d="M272.5,797.5C280.5,797.5,280.5,849.5,288.5,849.5"></path><path id="kity_path_111" fill="none" stroke="rgb(115, 191, 118)" stroke-width="1" d="M272.5,797.5C280.5,797.5,280.5,875.5,288.5,875.5"></path></g><g id="minder_node1"><path id="node_outline1" fill="rgb(115, 191, 118)" stroke="rgb(57, 96, 58)" d="M25.5,451.5h90a5,5,0,0,1,5,5v18a5,5,0,0,1,-5,5h-90a5,5,0,0,1,-5,-5v-18a5,5,0,0,1,5,-5z" stroke-width="3"></path><g id="node_text1" fill="white"><text id="kity_text_22" text-rendering="inherit" font-size="16" dy=".8em" y="457.5" x="32.5">Node简介</text></g></g><g id="kity_g_12"><path id="kity_path_13" fill="none" stroke="none" d="M32.5,465.5h0v0h0z"></path></g><g id="kity_g_14"><path id="kity_path_15" fill="none" stroke="none" d="M32.5,465.5h0v0h0z"></path><path id="kity_path_16" fill="none" stroke="none"></path></g><g id="minder_node2"><g id="node_expander10" style="cursor: pointer;"><path id="kity_path_263" fill="white" stroke="gray" d="M137.5,133.5A6,6,0,1,1,125.5,133.5A6,6,0,1,1,137.5,133.5"></path><path id="kity_path_264" fill="none" stroke="gray" d="M127,133.5L136,133.5"></path></g><path id="node_outline11" fill="rgb(238, 246, 238)" stroke="rgb(115, 191, 118)" d="M141.5,120.5h142a3,3,0,0,1,3,3v20a3,3,0,0,1,-3,3h-142a3,3,0,0,1,-3,-3v-20a3,3,0,0,1,3,-3z" stroke-width="1"></path><g id="node_text11" fill="black"><text id="kity_text_131" text-rendering="inherit" font-size="14" dy=".8em" y="126.5" x="158.5">Node的诞生历程</text></g></g><g id="minder_node3"><g id="node_expander1" display="none" style="cursor: pointer;"><path id="kity_path_236" fill="white" stroke="gray" d="M302.5,29.5A6,6,0,1,1,290.5,29.5A6,6,0,1,1,302.5,29.5"></path><path id="kity_path_237" fill="none" stroke="gray"></path></g><path id="node_outline2" fill="none" stroke="none" d="M307.5,20.5h212a5,5,0,0,1,5,5v8a5,5,0,0,1,-5,5h-212a5,5,0,0,1,-5,-5v-8a5,5,0,0,1,5,-5z"></path><g id="node_text2" fill="black"><text id="kity_text_113" text-rendering="inherit" font-size="12" dy=".8em" y="23.5" x="307.5">2009年3月，Ryan Dahl在博客宣布创建</text></g></g><g id="minder_node4"><g id="node_expander2" display="none" style="cursor: pointer;"><path id="kity_path_239" fill="white" stroke="gray" d="M302.5,55.5A6,6,0,1,1,290.5,55.5A6,6,0,1,1,302.5,55.5"></path><path id="kity_path_240" fill="none" stroke="gray"></path></g><path id="node_outline3" fill="none" stroke="none" d="M307.5,46.5h205a5,5,0,0,1,5,5v8a5,5,0,0,1,-5,5h-205a5,5,0,0,1,-5,-5v-8a5,5,0,0,1,5,-5z"></path><g id="node_text3" fill="black"><text id="kity_text_115" text-rendering="inherit" font-size="12" dy=".8em" y="49.5" x="307.5">2009年5月，在Github上发布最初版本</text></g></g><g id="minder_node5"><g id="node_expander3" display="none" style="cursor: pointer;"><path id="kity_path_242" fill="white" stroke="gray" d="M302.5,81.5A6,6,0,1,1,290.5,81.5A6,6,0,1,1,302.5,81.5"></path><path id="kity_path_243" fill="none" stroke="gray"></path></g><path id="node_outline4" fill="none" stroke="none" d="M307.5,72.5h338a5,5,0,0,1,5,5v8a5,5,0,0,1,-5,5h-338a5,5,0,0,1,-5,-5v-8a5,5,0,0,1,5,-5z"></path><g id="node_text4" fill="black"><text id="kity_text_117" text-rendering="inherit" font-size="12" dy=".8em" y="75.5" x="307.5">2009年12月和2010年4月，两届JSConf大会安排了Node的讲座</text></g></g><g id="minder_node6"><g id="node_expander4" display="none" style="cursor: pointer;"><path id="kity_path_245" fill="white" stroke="gray" d="M302.5,107.5A6,6,0,1,1,290.5,107.5A6,6,0,1,1,302.5,107.5"></path><path id="kity_path_246" fill="none" stroke="gray"></path></g><path id="node_outline5" fill="none" stroke="none" d="M307.5,98.5h302a5,5,0,0,1,5,5v8a5,5,0,0,1,-5,5h-302a5,5,0,0,1,-5,-5v-8a5,5,0,0,1,5,-5z"></path><g id="node_text5" fill="black"><text id="kity_text_119" text-rendering="inherit" font-size="12" dy=".8em" y="101.5" x="307.5">2010年底，Ryan Dahl加入Joyent全职负责Node的发展</text></g></g><g id="minder_node7"><g id="node_expander5" display="none" style="cursor: pointer;"><path id="kity_path_248" fill="white" stroke="gray" d="M302.5,133.5A6,6,0,1,1,290.5,133.5A6,6,0,1,1,302.5,133.5"></path><path id="kity_path_249" fill="none" stroke="gray"></path></g><path id="node_outline6" fill="none" stroke="none" d="M307.5,124.5h169a5,5,0,0,1,5,5v8a5,5,0,0,1,-5,5h-169a5,5,0,0,1,-5,-5v-8a5,5,0,0,1,5,-5z"></path><g id="node_text6" fill="black"><text id="kity_text_121" text-rendering="inherit" font-size="12" dy=".8em" y="127.5" x="307.5">2011年7月，发布Windows版本</text></g></g><g id="minder_node8"><g id="node_expander6" display="none" style="cursor: pointer;"><path id="kity_path_251" fill="white" stroke="gray" d="M302.5,159.5A6,6,0,1,1,290.5,159.5A6,6,0,1,1,302.5,159.5"></path><path id="kity_path_252" fill="none" stroke="gray"></path></g><path id="node_outline7" fill="none" stroke="none" d="M307.5,150.5h260a5,5,0,0,1,5,5v8a5,5,0,0,1,-5,5h-260a5,5,0,0,1,-5,-5v-8a5,5,0,0,1,5,-5z"></path><g id="node_text7" fill="black"><text id="kity_text_123" text-rendering="inherit" font-size="12" dy=".8em" y="153.5" x="307.5">2011年11月，成为Github上面关注度最高的项目</text></g></g><g id="minder_node9"><g id="node_expander7" display="none" style="cursor: pointer;"><path id="kity_path_254" fill="white" stroke="gray" d="M302.5,185.5A6,6,0,1,1,290.5,185.5A6,6,0,1,1,302.5,185.5"></path><path id="kity_path_255" fill="none" stroke="gray"></path></g><path id="node_outline8" fill="none" stroke="none" d="M307.5,176.5h396a5,5,0,0,1,5,5v8a5,5,0,0,1,-5,5h-396a5,5,0,0,1,-5,-5v-8a5,5,0,0,1,5,-5z"></path><g id="node_text8" fill="black"><text id="kity_text_125" text-rendering="inherit" font-size="12" dy=".8em" y="179.5" x="307.5">2012年1月底，Ryan Dahl 将掌门人身份交给NPM的作者Issac Z.Schlueter</text></g></g><g id="minder_node10"><g id="node_expander8" display="none" style="cursor: pointer;"><path id="kity_path_257" fill="white" stroke="gray" d="M302.5,211.5A6,6,0,1,1,290.5,211.5A6,6,0,1,1,302.5,211.5"></path><path id="kity_path_258" fill="none" stroke="gray"></path></g><path id="node_outline9" fill="none" stroke="none" d="M307.5,202.5h178a5,5,0,0,1,5,5v8a5,5,0,0,1,-5,5h-178a5,5,0,0,1,-5,-5v-8a5,5,0,0,1,5,-5z"></path><g id="node_text9" fill="black"><text id="kity_text_127" text-rendering="inherit" font-size="12" dy=".8em" y="205.5" x="307.5">2013年7月，发布稳定版V0.10.13</text></g></g><g id="minder_node11"><g id="node_expander9" display="none" style="cursor: pointer;"><path id="kity_path_260" fill="white" stroke="gray" d="M302.5,237.5A6,6,0,1,1,290.5,237.5A6,6,0,1,1,302.5,237.5"></path><path id="kity_path_261" fill="none" stroke="gray"></path></g><path id="node_outline10" fill="none" stroke="none" d="M307.5,228.5h389a5,5,0,0,1,5,5v8a5,5,0,0,1,-5,5h-389a5,5,0,0,1,-5,-5v-8a5,5,0,0,1,5,-5z"></path><g id="node_text10" fill="black"><text id="kity_text_129" text-rendering="inherit" font-size="12" dy=".8em" y="231.5" x="307.5">随后，Node的发布计划主要集中在性能上面，V0.14后正式发布V1.0版本</text></g></g><g id="minder_node12"><g id="node_expander17" style="cursor: pointer;"><path id="kity_path_284" fill="white" stroke="gray" d="M137.5,323.5A6,6,0,1,1,125.5,323.5A6,6,0,1,1,137.5,323.5"></path><path id="kity_path_285" fill="none" stroke="gray" d="M127,323.5L136,323.5"></path></g><path id="node_outline18" fill="rgb(238, 246, 238)" stroke="rgb(115, 191, 118)" d="M141.5,310.5h156a3,3,0,0,1,3,3v20a3,3,0,0,1,-3,3h-156a3,3,0,0,1,-3,-3v-20a3,3,0,0,1,3,-3z" stroke-width="1"></path><g id="node_text18" fill="black"><text id="kity_text_145" text-rendering="inherit" font-size="14" dy=".8em" y="316.5" x="158.5">Node的命名与起源</text></g></g><g id="minder_node13"><g id="node_expander14" style="cursor: pointer;"><path id="kity_path_275" fill="white" stroke="gray" d="M316.5,297.5A6,6,0,1,1,304.5,297.5A6,6,0,1,1,316.5,297.5"></path><path id="kity_path_276" fill="none" stroke="gray" d="M306,297.5L315,297.5"></path></g><path id="node_outline15" fill="none" stroke="none" d="M321.5,288.5h109a5,5,0,0,1,5,5v8a5,5,0,0,1,-5,5h-109a5,5,0,0,1,-5,-5v-8a5,5,0,0,1,5,-5z"></path><g id="node_text15" fill="black"><text id="kity_text_139" text-rendering="inherit" font-size="12" dy=".8em" y="291.5" x="321.5">为什么是JavaScript</text></g></g><g id="minder_node14"><g id="node_expander11" display="none" style="cursor: pointer;"><path id="kity_path_266" fill="white" stroke="gray" d="M451.5,271.5A6,6,0,1,1,439.5,271.5A6,6,0,1,1,451.5,271.5"></path><path id="kity_path_267" fill="none" stroke="gray"></path></g><path id="node_outline12" fill="none" stroke="none" d="M456.5,262.5h301a5,5,0,0,1,5,5v8a5,5,0,0,1,-5,5h-301a5,5,0,0,1,-5,-5v-8a5,5,0,0,1,5,-5z"></path><g id="node_text12" fill="black"><text id="kity_text_133" text-rendering="inherit" font-size="12" dy=".8em" y="265.5" x="456.5">高性能（chrome浏览器的V8引擎性能在浏览器中第一）</text></g></g><g id="minder_node15"><g id="node_expander12" display="none" style="cursor: pointer;"><path id="kity_path_269" fill="white" stroke="gray" d="M451.5,297.5A6,6,0,1,1,439.5,297.5A6,6,0,1,1,451.5,297.5"></path><path id="kity_path_270" fill="none" stroke="gray"></path></g><path id="node_outline13" fill="none" stroke="none" d="M456.5,288.5h373a5,5,0,0,1,5,5v8a5,5,0,0,1,-5,5h-373a5,5,0,0,1,-5,-5v-8a5,5,0,0,1,5,-5z"></path><g id="node_text13" fill="black"><text id="kity_text_135" text-rendering="inherit" font-size="12" dy=".8em" y="291.5" x="456.5">符合事件驱动（JavaScript在浏览器中有广泛的事件驱动方面的应用）</text></g></g><g id="minder_node16"><g id="node_expander13" display="none" style="cursor: pointer;"><path id="kity_path_272" fill="white" stroke="gray" d="M451.5,323.5A6,6,0,1,1,439.5,323.5A6,6,0,1,1,451.5,323.5"></path><path id="kity_path_273" fill="none" stroke="gray"></path></g><path id="node_outline14" fill="none" stroke="none" d="M456.5,314.5h294a5,5,0,0,1,5,5v8a5,5,0,0,1,-5,5h-294a5,5,0,0,1,-5,-5v-8a5,5,0,0,1,5,-5z"></path><g id="node_text14" fill="black"><text id="kity_text_137" text-rendering="inherit" font-size="12" dy=".8em" y="317.5" x="456.5">没有历史包袱（为其导入非阻塞的I/O库没有而外阻力）</text></g></g><g id="minder_node17"><g id="node_expander16" style="cursor: pointer;"><path id="kity_path_281" fill="white" stroke="gray" d="M316.5,349.5A6,6,0,1,1,304.5,349.5A6,6,0,1,1,316.5,349.5"></path><path id="kity_path_282" fill="none" stroke="gray" d="M306,349.5L315,349.5"></path></g><path id="node_outline17" fill="none" stroke="none" d="M321.5,340.5h81a5,5,0,0,1,5,5v8a5,5,0,0,1,-5,5h-81a5,5,0,0,1,-5,-5v-8a5,5,0,0,1,5,-5z"></path><g id="node_text17" fill="black"><text id="kity_text_143" text-rendering="inherit" font-size="12" dy=".8em" y="343.5" x="321.5">为什么叫Node</text></g></g><g id="minder_node18"><g id="node_expander15" display="none" style="cursor: pointer;"><path id="kity_path_278" fill="white" stroke="gray" d="M423.5,349.5A6,6,0,1,1,411.5,349.5A6,6,0,1,1,423.5,349.5"></path><path id="kity_path_279" fill="none" stroke="gray"></path></g><path id="node_outline16" fill="none" stroke="none" d="M428.5,340.5h249a5,5,0,0,1,5,5v8a5,5,0,0,1,-5,5h-249a5,5,0,0,1,-5,-5v-8a5,5,0,0,1,5,-5z"></path><g id="node_text16" fill="black"><text id="kity_text_141" text-rendering="inherit" font-size="12" dy=".8em" y="343.5" x="428.5">每一个Node进程构成这个网络应用中一个节点</text></g></g><g id="minder_node19"><g id="node_expander21" style="cursor: pointer;"><path id="kity_path_296" fill="white" stroke="gray" d="M137.5,409.5A6,6,0,1,1,125.5,409.5A6,6,0,1,1,137.5,409.5"></path><path id="kity_path_297" fill="none" stroke="gray" d="M127,409.5L136,409.5"></path></g><path id="node_outline22" fill="rgb(238, 246, 238)" stroke="rgb(115, 191, 118)" d="M141.5,396.5h227a3,3,0,0,1,3,3v20a3,3,0,0,1,-3,3h-227a3,3,0,0,1,-3,-3v-20a3,3,0,0,1,3,-3z" stroke-width="1"></path><g id="node_text22" fill="black"><text id="kity_text_153" text-rendering="inherit" font-size="14" dy=".8em" y="402.5" x="158.5">Node给JavaScript带来的意义</text></g></g><g id="minder_node20"><g id="node_expander18" display="none" style="cursor: pointer;"><path id="kity_path_287" fill="white" stroke="gray" d="M387.5,383.5A6,6,0,1,1,375.5,383.5A6,6,0,1,1,387.5,383.5"></path><path id="kity_path_288" fill="none" stroke="gray"></path></g><path id="node_outline19" fill="none" stroke="none" d="M392.5,374.5h308a5,5,0,0,1,5,5v8a5,5,0,0,1,-5,5h-308a5,5,0,0,1,-5,-5v-8a5,5,0,0,1,5,-5z"></path><g id="node_text19" fill="black"><text id="kity_text_147" text-rendering="inherit" font-size="12" dy=".8em" y="377.5" x="392.5">Node结构与Chrome十分相似，基于事件驱动的异步架构</text></g></g><g id="minder_node21"><g id="node_expander19" display="none" style="cursor: pointer;"><path id="kity_path_290" fill="white" stroke="gray" d="M387.5,409.5A6,6,0,1,1,375.5,409.5A6,6,0,1,1,387.5,409.5"></path><path id="kity_path_291" fill="none" stroke="gray"></path></g><path id="node_outline20" fill="none" stroke="none" d="M392.5,400.5h346a5,5,0,0,1,5,5v8a5,5,0,0,1,-5,5h-346a5,5,0,0,1,-5,-5v-8a5,5,0,0,1,5,-5z"></path><g id="node_text20" fill="black"><text id="kity_text_149" text-rendering="inherit" font-size="12" dy=".8em" y="403.5" x="392.5">Node中JavaScript可以访问本地文件，搭建服务器，连接数据库</text></g></g><g id="minder_node22"><g id="node_expander20" display="none" style="cursor: pointer;"><path id="kity_path_293" fill="white" stroke="gray" d="M387.5,435.5A6,6,0,1,1,375.5,435.5A6,6,0,1,1,387.5,435.5"></path><path id="kity_path_294" fill="none" stroke="gray"></path></g><path id="node_outline21" fill="none" stroke="none" d="M392.5,426.5h370a5,5,0,0,1,5,5v8a5,5,0,0,1,-5,5h-370a5,5,0,0,1,-5,-5v-8a5,5,0,0,1,5,-5z"></path><g id="node_text21" fill="black"><text id="kity_text_151" text-rendering="inherit" font-size="12" dy=".8em" y="429.5" x="392.5">Node打破了过去JavaScript只能在浏览器中运行的局面，前后端统一</text></g></g><g id="minder_node23"><g id="node_expander28" style="cursor: pointer;"><path id="kity_path_317" fill="white" stroke="gray" d="M137.5,521.5A6,6,0,1,1,125.5,521.5A6,6,0,1,1,137.5,521.5"></path><path id="kity_path_318" fill="none" stroke="gray" d="M127,521.5L136,521.5"></path></g><path id="node_outline29" fill="rgb(238, 246, 238)" stroke="rgb(115, 191, 118)" d="M141.5,508.5h114a3,3,0,0,1,3,3v20a3,3,0,0,1,-3,3h-114a3,3,0,0,1,-3,-3v-20a3,3,0,0,1,3,-3z" stroke-width="1"></path><g id="node_text29" fill="black"><text id="kity_text_167" text-rendering="inherit" font-size="14" dy=".8em" y="514.5" x="158.5">Node的特点</text></g></g><g id="minder_node24"><g id="node_expander22" display="none" style="cursor: pointer;"><path id="kity_path_299" fill="white" stroke="gray" d="M274.5,469.5A6,6,0,1,1,262.5,469.5A6,6,0,1,1,274.5,469.5"></path><path id="kity_path_300" fill="none" stroke="gray"></path></g><path id="node_outline23" fill="none" stroke="none" d="M279.5,460.5h42a5,5,0,0,1,5,5v8a5,5,0,0,1,-5,5h-42a5,5,0,0,1,-5,-5v-8a5,5,0,0,1,5,-5z"></path><g id="node_text23" fill="black"><text id="kity_text_155" text-rendering="inherit" font-size="12" dy=".8em" y="463.5" x="279.5">异步I/O</text></g></g><g id="minder_node25"><g id="node_expander23" display="none" style="cursor: pointer;"><path id="kity_path_302" fill="white" stroke="gray" d="M274.5,495.5A6,6,0,1,1,262.5,495.5A6,6,0,1,1,274.5,495.5"></path><path id="kity_path_303" fill="none" stroke="gray"></path></g><path id="node_outline24" fill="none" stroke="none" d="M279.5,486.5h84a5,5,0,0,1,5,5v8a5,5,0,0,1,-5,5h-84a5,5,0,0,1,-5,-5v-8a5,5,0,0,1,5,-5z"></path><g id="node_text24" fill="black"><text id="kity_text_157" text-rendering="inherit" font-size="12" dy=".8em" y="489.5" x="279.5">事件与回调函数</text></g></g><g id="minder_node26"><g id="node_expander26" style="cursor: pointer;"><path id="kity_path_311" fill="white" stroke="gray" d="M274.5,534.5A6,6,0,1,1,262.5,534.5A6,6,0,1,1,274.5,534.5"></path><path id="kity_path_312" fill="none" stroke="gray" d="M264,534.5L273,534.5"></path></g><path id="node_outline27" fill="none" stroke="none" d="M279.5,525.5h36a5,5,0,0,1,5,5v8a5,5,0,0,1,-5,5h-36a5,5,0,0,1,-5,-5v-8a5,5,0,0,1,5,-5z"></path><g id="node_text27" fill="black"><text id="kity_text_163" text-rendering="inherit" font-size="12" dy=".8em" y="528.5" x="279.5">单线程</text></g></g><g id="minder_node27"><g id="node_expander24" display="none" style="cursor: pointer;"><path id="kity_path_305" fill="white" stroke="gray" d="M336.5,521.5A6,6,0,1,1,324.5,521.5A6,6,0,1,1,336.5,521.5"></path><path id="kity_path_306" fill="none" stroke="gray"></path></g><path id="node_outline25" fill="none" stroke="none" d="M341.5,512.5h251a5,5,0,0,1,5,5v8a5,5,0,0,1,-5,5h-251a5,5,0,0,1,-5,-5v-8a5,5,0,0,1,5,-5z"></path><g id="node_text25" fill="black"><text id="kity_text_159" text-rendering="inherit" font-size="12" dy=".8em" y="515.5" x="341.5">child_progress：解决单线程中大量算量的问题</text></g></g><g id="minder_node28"><g id="node_expander25" display="none" style="cursor: pointer;"><path id="kity_path_308" fill="white" stroke="gray" d="M336.5,547.5A6,6,0,1,1,324.5,547.5A6,6,0,1,1,336.5,547.5"></path><path id="kity_path_309" fill="none" stroke="gray"></path></g><path id="node_outline26" fill="none" stroke="none" d="M341.5,538.5h192a5,5,0,0,1,5,5v8a5,5,0,0,1,-5,5h-192a5,5,0,0,1,-5,-5v-8a5,5,0,0,1,5,-5z"></path><g id="node_text26" fill="black"><text id="kity_text_161" text-rendering="inherit" font-size="12" dy=".8em" y="541.5" x="341.5">Master-Worker：管理各个工作进程</text></g></g><g id="minder_node29"><g id="node_expander27" display="none" style="cursor: pointer;"><path id="kity_path_314" fill="white" stroke="gray" d="M274.5,573.5A6,6,0,1,1,262.5,573.5A6,6,0,1,1,274.5,573.5"></path><path id="kity_path_315" fill="none" stroke="gray"></path></g><path id="node_outline28" fill="none" stroke="none" d="M279.5,564.5h181a5,5,0,0,1,5,5v8a5,5,0,0,1,-5,5h-181a5,5,0,0,1,-5,-5v-8a5,5,0,0,1,5,-5z"></path><g id="node_text28" fill="black"><text id="kity_text_165" text-rendering="inherit" font-size="12" dy=".8em" y="567.5" x="279.5">跨平台：兼容Windows和*nix平台</text></g></g><g id="minder_node30"><g id="node_expander33" style="cursor: pointer;"><path id="kity_path_332" fill="white" stroke="gray" d="M137.5,646.5A6,6,0,1,1,125.5,646.5A6,6,0,1,1,137.5,646.5"></path><path id="kity_path_333" fill="none" stroke="gray" d="M127,646.5L136,646.5"></path></g><path id="node_outline34" fill="rgb(238, 246, 238)" stroke="rgb(115, 191, 118)" d="M141.5,633.5h142a3,3,0,0,1,3,3v20a3,3,0,0,1,-3,3h-142a3,3,0,0,1,-3,-3v-20a3,3,0,0,1,3,-3z" stroke-width="1"></path><g id="node_text34" fill="black"><text id="kity_text_177" text-rendering="inherit" font-size="14" dy=".8em" y="639.5" x="158.5">Node的应用场景</text></g></g><g id="minder_node31"><g id="node_expander29" display="none" style="cursor: pointer;"><path id="kity_path_320" fill="white" stroke="gray" d="M302.5,607.5A6,6,0,1,1,290.5,607.5A6,6,0,1,1,302.5,607.5"></path><path id="kity_path_321" fill="none" stroke="gray"></path></g><path id="node_outline30" fill="none" stroke="none" d="M307.5,598.5h54a5,5,0,0,1,5,5v8a5,5,0,0,1,-5,5h-54a5,5,0,0,1,-5,-5v-8a5,5,0,0,1,5,-5z"></path><g id="node_text30" fill="black"><text id="kity_text_169" text-rendering="inherit" font-size="12" dy=".8em" y="601.5" x="307.5">I/O密集型</text></g></g><g id="minder_node32"><g id="node_expander30" display="none" style="cursor: pointer;"><path id="kity_path_323" fill="white" stroke="gray" d="M302.5,633.5A6,6,0,1,1,290.5,633.5A6,6,0,1,1,302.5,633.5"></path><path id="kity_path_324" fill="none" stroke="gray"></path></g><path id="node_outline31" fill="none" stroke="none" d="M307.5,624.5h253a5,5,0,0,1,5,5v8a5,5,0,0,1,-5,5h-253a5,5,0,0,1,-5,-5v-8a5,5,0,0,1,5,-5z"></path><g id="node_text31" fill="black"><text id="kity_text_171" text-rendering="inherit" font-size="12" dy=".8em" y="627.5" x="307.5">不是很擅长CPU密集型业务，但是可以合理调度</text></g></g><g id="minder_node33"><g id="node_expander31" display="none" style="cursor: pointer;"><path id="kity_path_326" fill="white" stroke="gray" d="M302.5,659.5A6,6,0,1,1,290.5,659.5A6,6,0,1,1,302.5,659.5"></path><path id="kity_path_327" fill="none" stroke="gray"></path></g><path id="node_outline32" fill="none" stroke="none" d="M307.5,650.5h132a5,5,0,0,1,5,5v8a5,5,0,0,1,-5,5h-132a5,5,0,0,1,-5,-5v-8a5,5,0,0,1,5,-5z"></path><g id="node_text32" fill="black"><text id="kity_text_173" text-rendering="inherit" font-size="12" dy=".8em" y="653.5" x="307.5">与遗留系统问题和平共处</text></g></g><g id="minder_node34"><g id="node_expander32" display="none" style="cursor: pointer;"><path id="kity_path_329" fill="white" stroke="gray" d="M302.5,685.5A6,6,0,1,1,290.5,685.5A6,6,0,1,1,302.5,685.5"></path><path id="kity_path_330" fill="none" stroke="gray"></path></g><path id="node_outline33" fill="none" stroke="none" d="M307.5,676.5h60a5,5,0,0,1,5,5v8a5,5,0,0,1,-5,5h-60a5,5,0,0,1,-5,-5v-8a5,5,0,0,1,5,-5z"></path><g id="node_text33" fill="black"><text id="kity_text_175" text-rendering="inherit" font-size="12" dy=".8em" y="679.5" x="307.5">分布式应用</text></g></g><g id="minder_node35"><g id="node_expander41" style="cursor: pointer;"><path id="kity_path_356" fill="white" stroke="gray" d="M137.5,797.5A6,6,0,1,1,125.5,797.5A6,6,0,1,1,137.5,797.5"></path><path id="kity_path_357" fill="none" stroke="gray" d="M127,797.5L136,797.5"></path></g><path id="node_outline42" fill="rgb(238, 246, 238)" stroke="rgb(115, 191, 118)" d="M141.5,784.5h128a3,3,0,0,1,3,3v20a3,3,0,0,1,-3,3h-128a3,3,0,0,1,-3,-3v-20a3,3,0,0,1,3,-3z" stroke-width="1"></path><g id="node_text42" fill="black"><text id="kity_text_193" text-rendering="inherit" font-size="14" dy=".8em" y="790.5" x="158.5">Node的使用者</text></g></g><g id="minder_node36"><g id="node_expander34" display="none" style="cursor: pointer;"><path id="kity_path_335" fill="white" stroke="gray" d="M288.5,719.5A6,6,0,1,1,276.5,719.5A6,6,0,1,1,288.5,719.5"></path><path id="kity_path_336" fill="none" stroke="gray"></path></g><path id="node_outline35" fill="none" stroke="none" d="M293.5,710.5h276a5,5,0,0,1,5,5v8a5,5,0,0,1,-5,5h-276a5,5,0,0,1,-5,-5v-8a5,5,0,0,1,5,-5z"></path><g id="node_text35" fill="black"><text id="kity_text_179" text-rendering="inherit" font-size="12" dy=".8em" y="713.5" x="293.5">前后端编程语言环境统一：雅虎开放了Cocktail框架</text></g></g><g id="minder_node37"><g id="node_expander35" display="none" style="cursor: pointer;"><path id="kity_path_338" fill="white" stroke="gray" d="M288.5,745.5A6,6,0,1,1,276.5,745.5A6,6,0,1,1,288.5,745.5"></path><path id="kity_path_339" fill="none" stroke="gray"></path></g><path id="node_outline36" fill="none" stroke="none" d="M293.5,736.5h289a5,5,0,0,1,5,5v8a5,5,0,0,1,-5,5h-289a5,5,0,0,1,-5,-5v-8a5,5,0,0,1,5,-5z"></path><g id="node_text36" fill="black"><text id="kity_text_181" text-rendering="inherit" font-size="12" dy=".8em" y="739.5" x="293.5">Node带来的高性能的I/O用于实时应用：Voxer和腾讯</text></g></g><g id="minder_node38"><g id="node_expander36" display="none" style="cursor: pointer;"><path id="kity_path_341" fill="white" stroke="gray" d="M288.5,771.5A6,6,0,1,1,276.5,771.5A6,6,0,1,1,288.5,771.5"></path><path id="kity_path_342" fill="none" stroke="gray"></path></g><path id="node_outline37" fill="none" stroke="none" d="M293.5,762.5h360a5,5,0,0,1,5,5v8a5,5,0,0,1,-5,5h-360a5,5,0,0,1,-5,-5v-8a5,5,0,0,1,5,-5z"></path><g id="node_text37" fill="black"><text id="kity_text_183" text-rendering="inherit" font-size="12" dy=".8em" y="765.5" x="293.5">并行I/O使得使用者可以更高效地利用分布式环境：阿里巴巴和eBay</text></g></g><g id="minder_node39"><g id="node_expander37" display="none" style="cursor: pointer;"><path id="kity_path_344" fill="white" stroke="gray" d="M288.5,797.5A6,6,0,1,1,276.5,797.5A6,6,0,1,1,288.5,797.5"></path><path id="kity_path_345" fill="none" stroke="gray"></path></g><path id="node_outline38" fill="none" stroke="none" d="M293.5,788.5h369a5,5,0,0,1,5,5v8a5,5,0,0,1,-5,5h-369a5,5,0,0,1,-5,-5v-8a5,5,0,0,1,5,-5z"></path><g id="node_text38" fill="black"><text id="kity_text_185" text-rendering="inherit" font-size="12" dy=".8em" y="791.5" x="293.5">并行I/O，有效利用稳定接口提升Web渲染能力：雪球财经和LinkedIn</text></g></g><g id="minder_node40"><g id="node_expander38" display="none" style="cursor: pointer;"><path id="kity_path_347" fill="white" stroke="gray" d="M288.5,823.5A6,6,0,1,1,276.5,823.5A6,6,0,1,1,288.5,823.5"></path><path id="kity_path_348" fill="none" stroke="gray"></path></g><path id="node_outline39" fill="none" stroke="none" d="M293.5,814.5h141a5,5,0,0,1,5,5v8a5,5,0,0,1,-5,5h-141a5,5,0,0,1,-5,-5v-8a5,5,0,0,1,5,-5z"></path><g id="node_text39" fill="black"><text id="kity_text_187" text-rendering="inherit" font-size="12" dy=".8em" y="817.5" x="293.5">云计算平台提供Node支持</text></g></g><g id="minder_node41"><g id="node_expander39" display="none" style="cursor: pointer;"><path id="kity_path_350" fill="white" stroke="gray" d="M288.5,849.5A6,6,0,1,1,276.5,849.5A6,6,0,1,1,288.5,849.5"></path><path id="kity_path_351" fill="none" stroke="gray"></path></g><path id="node_outline40" fill="none" stroke="none" d="M293.5,840.5h213a5,5,0,0,1,5,5v8a5,5,0,0,1,-5,5h-213a5,5,0,0,1,-5,-5v-8a5,5,0,0,1,5,-5z"></path><g id="node_text40" fill="black"><text id="kity_text_189" text-rendering="inherit" font-size="12" dy=".8em" y="843.5" x="293.5">游戏开发领域：网易的pomelo实时框架</text></g></g><g id="minder_node42"><g id="node_expander40" display="none" style="cursor: pointer;"><path id="kity_path_353" fill="white" stroke="gray" d="M288.5,875.5A6,6,0,1,1,276.5,875.5A6,6,0,1,1,288.5,875.5"></path><path id="kity_path_354" fill="none" stroke="gray"></path></g><path id="node_outline41" fill="none" stroke="none" d="M293.5,866.5h60a5,5,0,0,1,5,5v8a5,5,0,0,1,-5,5h-60a5,5,0,0,1,-5,-5v-8a5,5,0,0,1,5,-5z"></path><g id="node_text41" fill="black"><text id="kity_text_191" text-rendering="inherit" font-size="12" dy=".8em" y="869.5" x="293.5">工具类应用</text></g></g></g></g></svg>